<?xml version="1.0" encoding="UTF-8" standalone="no"?>
<svg xmlns="http://www.w3.org/2000/svg" xmlns:xlink="http://www.w3.org/1999/xlink" height="180" version="1.1" viewBox="0 0 181 180" width="181">
    <title>Icon-Kundenzentriert</title>
    <defs>
        <polygon id="path-1" points="0 0.000214285714 5.34240972 0.000214285714 5.34240972 2.14264286 0 2.14264286"/>
    </defs>
    <g fill="none" fill-rule="evenodd" id="-Neuaufbau-&quot;Vier-Säulen&quot;" stroke="none" stroke-width="1">
        <g id="freenet-group-index-1" transform="translate(-117.000000, -957.000000)">
            <g id="4Säulen" transform="translate(39.534591, 898.000000)">
                <g id="Group-3" transform="translate(0.000000, 59.000000)">
                    <g id="Icon-Kundenzentriert" transform="translate(78.000000, 0.000000)">
                        <circle cx="90" cy="90" fill="#FFFFFF" id="Oval" r="90"/>
                        <g id="Group" transform="translate(43.465409, 45.000000)">
                            <g id="Group-42">
                                <path d="M47.2083333,41.7857143 C46.4427488,43.6731976 45.3349898,45.3757847 43.9638303,46.8061632 C42.5951325,48.2339737 40.9630343,49.3895758 39.1536946,50.1882252 C37.3418932,50.9868746 35.3503886,51.4285714 33.2604167,51.4285714 C31.1704447,51.4285714 29.1789402,50.9868746 27.3671388,50.1882252 C25.5577991,49.3895758 23.9257008,48.2339737 22.557003,46.8061632 C21.1858436,45.3757847 20.0780846,43.6731976 19.3125,41.7857143" id="Stroke-3" stroke="#21314D" stroke-linecap="round" stroke-linejoin="round" stroke-width="3"/>
                                <line id="Stroke-5" stroke="#21314D" stroke-linecap="round" stroke-linejoin="round" stroke-width="3" x1="24.6770833" x2="24.6770833" y1="25.7142857" y2="32.1428571"/>
                                <line id="Stroke-7" stroke="#21314D" stroke-linecap="round" stroke-linejoin="round" stroke-width="3" x1="42.9166667" x2="42.9166667" y1="25.7142857" y2="32.1428571"/>
                                <path d="M72.9583333,43.9285714 C89.5485439,43.9285714 103,57.3589316 103,73.9285714 C103,90.495772 89.5485439,103.928571 72.9583333,103.928571 C56.3681227,103.928571 42.9166667,90.495772 42.9166667,73.9285714" id="Stroke-9" stroke="#84BC34" stroke-linecap="round" stroke-linejoin="round" stroke-width="3"/>
                                <path d="M59.0104167,90 C59.7760012,88.1104518 60.8837602,86.4108854 62.2549197,84.9808877 C63.6236175,83.5534573 65.2557157,82.3981629 67.0650554,81.5997262 C68.8768568,80.798722 70.8683614,80.3571429 72.9583333,80.3571429 C75.0483053,80.3571429 77.0398098,80.798722 78.8516112,81.5997262 C80.6609509,82.3981629 82.2930492,83.5534573 83.661747,84.9808877 C85.0329064,86.4108854 86.1406654,88.1104518 86.90625,90" id="Stroke-11" stroke="#84BC34" stroke-linecap="round" stroke-linejoin="round" stroke-width="3" transform="translate(72.958333, 85.178571) rotate(-180.000000) translate(-72.958333, -85.178571) "/>
                                <line id="Stroke-13" stroke="#84BC34" stroke-linecap="round" stroke-linejoin="round" stroke-width="3" x1="63.3020833" x2="63.3020833" y1="64.2857143" y2="70.7142857"/>
                                <line id="Stroke-15" stroke="#84BC34" stroke-linecap="round" stroke-linejoin="round" stroke-width="3" x1="81.5416667" x2="81.5416667" y1="64.2857143" y2="70.7142857"/>
                                <line id="Stroke-17" stroke="#848FA1" stroke-linecap="round" stroke-linejoin="round" stroke-width="3" x1="21.4583333" x2="16.09375" y1="81.4285714" y2="81.4285714"/>
                                <line id="Stroke-19" stroke="#848FA1" stroke-linecap="round" stroke-linejoin="round" stroke-width="3" x1="10.7291667" x2="5.36458333" y1="92.1428571" y2="92.1428571"/>
                                <line id="Stroke-21" stroke="#848FA1" stroke-linecap="round" stroke-linejoin="round" stroke-width="3" x1="5.36458333" x2="0" y1="70.7142857" y2="70.7142857"/>
                                <g id="Group-25" transform="translate(39.462662, 102.857357)">
                                    <mask fill="white" id="mask-2">
                                        <use xlink:href="#path-1"/>
                                    </mask>
                                    <g id="Clip-24"/>
                                </g>
                                <line id="Stroke-26" stroke="#848FA1" stroke-linecap="round" stroke-linejoin="round" stroke-width="3" x1="31.1145833" x2="25.75" y1="92.1428571" y2="92.1428571"/>
                                <line id="Stroke-28" stroke="#848FA1" stroke-linecap="round" stroke-linejoin="round" stroke-width="3" x1="16.09375" x2="21.4583333" y1="102.857143" y2="102.857143"/>
                                <line id="Stroke-30" stroke="#848FA1" stroke-linecap="round" stroke-linejoin="round" stroke-width="3" x1="81.5416667" x2="86.90625" y1="27.8571429" y2="27.8571429"/>
                                <line id="Stroke-32" stroke="#848FA1" stroke-linecap="round" stroke-linejoin="round" stroke-width="3" x1="92.2708333" x2="97.6354167" y1="17.1428571" y2="17.1428571"/>
                                <line id="Stroke-34" stroke="#848FA1" stroke-linecap="round" stroke-linejoin="round" stroke-width="3" x1="97.6354167" x2="103" y1="37.5" y2="37.5"/>
                                <line id="Stroke-36" stroke="#848FA1" stroke-linecap="round" stroke-linejoin="round" stroke-width="3" x1="61.15625" x2="66.5208333" y1="1.07142857" y2="1.07142857"/>
                                <line id="Stroke-38" stroke="#848FA1" stroke-linecap="round" stroke-linejoin="round" stroke-width="3" x1="71.8854167" x2="77.25" y1="17.1428571" y2="17.1428571"/>
                                <line id="Stroke-40" stroke="#848FA1" stroke-linecap="round" stroke-linejoin="round" stroke-width="3" x1="86.90625" x2="81.5416667" y1="6.42857143" y2="6.42857143"/>
                                <path d="M63.3020833,35.3559232 C63.3020833,51.9237973 49.8530699,65.3571429 33.2604167,65.3571429 C16.6702061,65.3571429 3.21875,51.9237973 3.21875,35.3559232 C3.21875,18.7880491 16.6702061,5.35714286 33.2604167,5.35714286 C49.8530699,5.35714286 63.3020833,18.7880491 63.3020833,35.3559232 Z" id="Stroke-1" stroke="#21314D" stroke-linecap="round" stroke-linejoin="round" stroke-width="3"/>
                            </g>
                            <path d="M72,45 C88.5696398,45 102,58.4309062 102,74.9987803 C102,91.5666545 88.5696398,105 72,105 C55.4327994,105 42,91.5666545 42,74.9987803 C42,71.4876655 42.6032857,68.1174362 43.7118394,64.9860678 C52.6029006,62.1216234 59.6805875,55.2198133 62.7880646,46.4413495 C65.690035,45.5054623 68.786037,45 72,45 Z" fill="#84BC34" id="Combined-Shape" opacity="0.200000003"/>
                            <path d="M64,34.9987803 C64,51.5666545 50.5696398,65 34,65 C17.4327994,65 4,51.5666545 4,34.9987803 C4,18.4309062 17.4327994,5 34,5 C50.5696398,5 64,18.4309062 64,34.9987803 Z" fill="#21314D" id="Stroke-1" opacity="0.200000003"/>
                        </g>
                        <path d="M139.322032,50.7925809 C148.897698,62.0610089 154.675409,76.657976 154.675409,92.605 C154.675409,128.285 125.750409,157.21 90.0704092,157.21 C54.3904092,157.21 25.4654092,128.285 25.4654092,92.605 C25.4654092,86.4417846 26.3284156,80.480171 27.9401731,74.8343992 M75.3338318,29.6882992 C80.0672436,28.5839635 85.0006361,28 90.0704092,28 C98.0594092,28 105.709409,29.45 112.771409,32.101" id="Shape" stroke="#848FA1" stroke-linecap="round" stroke-linejoin="round" stroke-width="3" transform="translate(90.070409, 92.605000) rotate(-180.000000) translate(-90.070409, -92.605000) "/>
                    </g>
                </g>
            </g>
        </g>
    </g>
</svg>
