<?xml version="1.0" encoding="UTF-8" standalone="no"?>
<svg xmlns="http://www.w3.org/2000/svg" xmlns:xlink="http://www.w3.org/1999/xlink" height="180" version="1.1" viewBox="0 0 181 180" width="181">
    <title>Icon-DigitalFirst</title>
    <g fill="none" fill-rule="evenodd" id="-Neuaufbau-&quot;Vier-Säulen&quot;" stroke="none" stroke-width="1">
        <g id="freenet-group-index-1" transform="translate(-458.000000, -960.000000)">
            <g id="4Säulen" transform="translate(39.534591, 898.000000)">
                <g id="Icon-DigitalFirst" transform="translate(419.000000, 62.000000)">
                    <circle cx="90" cy="90" fill="#FFFFFF" id="Oval" r="90"/>
                    <g id="Group-10" transform="translate(18.465409, 9.000000)">
                        <path d="M56.6767619,71.4414589 L39.0956452,87.6582601 L56.6767619,71.4414589 Z M106.246643,123.887743 L46.1433697,123.887743 L106.246643,123.887743 Z M56.6767619,99.0375971 L39.1155728,99.0375971 L56.6767619,99.0375971 Z M116.024447,133.552704 L126.534591,133.552704 L126.534591,134.791972 C126.534591,136.783772 125.830483,138.481535 124.422266,139.888586 C123.024014,141.297298 121.33349,142.001654 119.350694,141.999997 L33.2236486,141.999997 C31.3654008,142.001654 29.7595691,141.390327 28.4044929,140.164348 C28.3098369,140.07132 28.2185021,139.979953 28.1288279,139.888586 C26.7239328,138.481535 26.0214853,136.783772 26.018164,134.791972 L26.018164,133.529447 L36.574805,133.529447 L116.024447,133.552704 Z M56.6767619,61.3080347 L39.0956452,77.5264971 L56.6767619,61.3080347 Z M30.2727045,54.0202754 L30.2727045,106.679196 C30.2760258,107.619445 30.6147949,108.423474 31.2890117,109.08796 C31.9615678,109.764076 32.7702959,110.102964 33.7185171,110.106286 L62.0937452,110.106286 C63.0419664,110.102964 63.8506944,109.764076 64.5232506,109.08796 C65.1908249,108.423474 65.524612,107.619445 65.5196851,106.679196 L65.5196851,54.0202754 C65.524612,53.0717204 65.1908249,52.2627077 64.5232506,51.5899148 C63.8506944,50.9221055 63.0419664,50.5898621 62.0937452,50.5931599 L33.7185171,50.5931599 C32.7702959,50.5898621 31.9615678,50.9221055 31.2890117,51.5899148 C30.6147949,52.2627077 30.2760258,53.0717204 30.2727045,54.0202754 Z M36.574805,117.586747 L36.574805,133.529447 L116.024447,133.552704 L116.001199,81.0266815 C115.996217,79.8621683 115.576077,78.8670993 114.739118,78.0431356 C113.93205,77.1992373 112.953938,76.7723045 111.801459,76.7573536 L73.4890057,76.7573536" id="Stroke-1" stroke="#21314D" stroke-linecap="round" stroke-linejoin="round" stroke-width="3"/>
                        <path d="M118.734,16.3896347 C131.237,28.1706347 139.043,44.8826347 139.043,63.4186347 C139.043,66.5584105 138.819014,69.6458777 138.386149,72.665929 M61.2703803,126.6807 C31.9047323,120.599745 9.833,94.5864508 9.833,63.4186347 C9.833,46.4704864 16.3589516,31.0468274 27.0349916,19.5231994" id="Shape" stroke="#848FA1" stroke-linecap="round" stroke-linejoin="round" stroke-width="3" transform="translate(74.438000, 71.535167) rotate(-180.000000) translate(-74.438000, -71.535167) "/>
                        <line id="Stroke-30" stroke="#848FA1" stroke-linecap="round" stroke-linejoin="round" stroke-width="3" x1="72" x2="77" y1="161" y2="161"/>
                        <line id="Stroke-32" stroke="#848FA1" stroke-linecap="round" stroke-linejoin="round" stroke-width="3" x1="82" x2="87" y1="151" y2="151"/>
                        <g id="Group-23">
                            <path d="M57.9477794,0 C70.6981147,0 81.0346296,10.343959 81.0346296,23.1061607 L81.0694959,23.1061607 L81.0694959,23.1061607 C92.6290132,23.1061607 102,32.4838963 102,44.0517384 C102,55.6222644 92.6290132,65 81.0694959,65 L65.519,65 L65.5196851,54.0202754 C65.524612,53.0717204 65.1908249,52.2627077 64.5232506,51.5899148 C63.8506944,50.9221055 63.0419664,50.5898621 62.0937452,50.5931599 L33.7185171,50.5931599 C32.7702959,50.5898621 31.9615678,50.9221055 31.2890117,51.5899148 C30.6147949,52.2627077 30.2760258,53.0717204 30.2727045,54.0202754 L30.272,65 L17.5082433,65 C15.2951743,65 13.1779353,64.5889843 11.2286015,63.8390801 C4.66147818,61.3127228 0,54.9401395 0,47.4791477 C0,38.3885953 6.91961821,30.919151 15.7729747,30.046866 C15.692514,29.4215047 15.6361915,28.7880915 15.6361915,28.1412586 C15.6361915,20.0303493 22.2071468,13.4573458 30.309537,13.4573458 C32.4953853,13.4573458 34.5605427,13.9485094 36.4218664,14.8046907 C39.7583024,6.15162276 48.1262128,0 57.9477794,0 Z" fill="#21314D" id="Combined-Shape" opacity="0.200344994"/>
                            <path d="M22,65 L17.5082433,65 C15.2951743,65 13.1779353,64.5889843 11.2286015,63.8390801 C4.66147818,61.3127228 0,54.9401395 0,47.4791477 C0,38.3885953 6.91961821,30.919151 15.7729747,30.046866 C15.692514,29.4215047 15.6361915,28.7880915 15.6361915,28.1412586 C15.6361915,20.0303493 22.2071468,13.4573458 30.309537,13.4573458 C32.4953853,13.4573458 34.5605427,13.9485094 36.4218664,14.8046907 C39.7583024,6.15162276 48.1262128,0 57.9477794,0 C70.6981147,0 81.0346296,10.343959 81.0346296,23.1061607 C81.0480398,23.1061607 81.0587678,23.1061607 81.0694959,23.1061607 C92.6290132,23.1061607 102,32.4838963 102,44.0517384 C102,55.6222644 92.6290132,65 81.0694959,65 L73.3613631,65" id="Shape" stroke="#21314D" stroke-linecap="round" stroke-width="3"/>
                            <polygon fill="#84BC34" id="Path" opacity="0.198633103" points="78.3065007 86.4970693 97.6113539 100.408101 87.7920337 103.046114 80.6529744 110.209282"/>
                            <polygon id="Path" points="78.3065007 86.4970693 97.6113539 100.408101 87.7920337 103.046114 80.6529744 110.209282" stroke="#84BC34" stroke-linecap="round" stroke-linejoin="round" stroke-width="3"/>
                        </g>
                    </g>
                    <line id="Stroke-38" stroke="#848FA1" stroke-linecap="round" stroke-linejoin="round" stroke-width="3" x1="80.4654092" x2="85.4654092" y1="160" y2="160"/>
                </g>
            </g>
        </g>
    </g>
</svg>
