<?xml version="1.0" encoding="UTF-8" standalone="no"?>
<svg xmlns="http://www.w3.org/2000/svg" xmlns:xlink="http://www.w3.org/1999/xlink" height="180" version="1.1" viewBox="0 0 181 180" width="181">
    <title>Icon-Nah</title>
    <g fill="none" fill-rule="evenodd" id="-Neuaufbau-&quot;Vier-Säulen&quot;" stroke="none" stroke-width="1">
        <g id="freenet-group-index-1" transform="translate(-1141.000000, -957.000000)">
            <g id="4Säulen" transform="translate(39.534591, 898.000000)">
                <g id="Group-8" transform="translate(1024.437999, 59.000000)">
                    <g id="Icon-Nah" transform="translate(78.000000, 0.000000)">
                        <circle cx="90" cy="90" fill="#FFFFFF" id="Oval" r="90"/>
                        <path d="M134.761411,47.6227 C147.264411,59.4037 155.070411,76.1157 155.070411,94.6517 C155.070411,130.3317 126.145411,159.2567 90.4654107,159.2567 C54.7854107,159.2567 25.8604107,130.3317 25.8604107,94.6517 C25.8604107,77.7035517 32.3863622,62.2798927 43.0624022,50.7562647 M61.0548979,37.1138907 C69.8764092,32.5957447 79.8732541,30.0467 90.4654107,30.0467 C98.4544107,30.0467 106.104411,31.4967 113.166411,34.1477" id="Shape" stroke="#848FA1" stroke-linecap="round" stroke-linejoin="round" stroke-width="3"/>
                        <path d="M56.1157107,94.6515 C56.1157107,58.9715 78.8207107,30.0465 90.4657107,30.0465 C96.8057107,30.0465 106.424711,38.6215 113.872711,52.1925" id="Stroke-3" stroke="#848FA1" stroke-linecap="round" stroke-linejoin="round" stroke-width="3"/>
                        <path d="M123.304311,111.2011 C118.238311,138.8631 101.551311,159.2571 90.4653107,159.2571 C82.1073107,159.2571 70.5653107,147.6641 63.2203107,130.1041" id="Stroke-5" stroke="#848FA1" stroke-linecap="round" stroke-linejoin="round" stroke-width="3"/>
                        <line id="Stroke-7" stroke="#848FA1" stroke-linecap="round" stroke-linejoin="round" stroke-width="3" x1="90.4655107" x2="90.4655107" y1="30.0464" y2="157.8334"/>
                        <line id="Stroke-9" stroke="#848FA1" stroke-linecap="round" stroke-linejoin="round" stroke-width="3" x1="139.156411" x2="148.660411" y1="70.4243" y2="70.4243"/>
                        <line id="Stroke-11" stroke="#848FA1" stroke-linecap="round" stroke-linejoin="round" stroke-width="3" x1="32.0451107" x2="94.4061107" y1="70.4243" y2="70.4243"/>
                        <line id="Stroke-13" stroke="#848FA1" stroke-linecap="round" stroke-linejoin="round" stroke-width="3" x1="38.1566107" x2="30.5616107" y1="118.8786" y2="118.8786"/>
                        <line id="Stroke-15" stroke="#848FA1" stroke-linecap="round" stroke-linejoin="round" stroke-width="3" x1="148.660011" x2="70.6570107" y1="118.8786" y2="118.8786"/>
                        <path d="M134.757911,74.9661 C134.757911,77.7111 134.126911,80.3101 133.002911,82.6241 C130.158911,88.4751 117.215911,106.5801 117.215911,106.5801 C117.215911,106.5801 104.579911,88.6791 101.652911,83.0701 C100.387911,80.6461 99.6729107,77.8901 99.6729107,74.9661 C99.6729107,65.2781 107.526911,57.4241 117.215911,57.4241 C126.903911,57.4241 134.757911,65.2781 134.757911,74.9661 Z" fill="#21314D" id="Stroke-17" opacity="0.199312483"/>
                        <path d="M134.757911,74.9661 C134.757911,77.7111 134.126911,80.3101 133.002911,82.6241 C130.158911,88.4751 117.215911,106.5801 117.215911,106.5801 C117.215911,106.5801 104.579911,88.6791 101.652911,83.0701 C100.387911,80.6461 99.6729107,77.8901 99.6729107,74.9661 C99.6729107,65.2781 107.526911,57.4241 117.215911,57.4241 C126.903911,57.4241 134.757911,65.2781 134.757911,74.9661 Z" id="Stroke-17" stroke="#21314D" stroke-linecap="round" stroke-linejoin="round" stroke-width="3"/>
                        <path d="M124.364211,74.9661 C124.364211,78.9141 121.163211,82.1151 117.215211,82.1151 C113.267211,82.1151 110.066211,78.9141 110.066211,74.9661 C110.066211,71.0181 113.267211,67.8171 117.215211,67.8171 C121.163211,67.8171 124.364211,71.0181 124.364211,74.9661 Z" fill="#FFFFFF" id="Stroke-19" stroke="#21314D" stroke-linecap="round" stroke-linejoin="round" stroke-width="3"/>
                        <path d="M139.970611,25.5981 C139.970611,27.3641 139.564611,29.0351 138.841611,30.5231 C137.012611,34.2861 128.688611,45.9301 128.688611,45.9301 C128.688611,45.9301 120.562611,34.4171 118.679611,30.8101 C117.866611,29.2511 117.406611,27.4781 117.406611,25.5981 C117.406611,19.3671 122.457611,14.3161 128.688611,14.3161 C134.919611,14.3161 139.970611,19.3671 139.970611,25.5981 Z" fill="#21314D" id="Stroke-21" opacity="0.200299218"/>
                        <path d="M139.970611,25.5981 C139.970611,27.3641 139.564611,29.0351 138.841611,30.5231 C137.012611,34.2861 128.688611,45.9301 128.688611,45.9301 C128.688611,45.9301 120.562611,34.4171 118.679611,30.8101 C117.866611,29.2511 117.406611,27.4781 117.406611,25.5981 C117.406611,19.3671 122.457611,14.3161 128.688611,14.3161 C134.919611,14.3161 139.970611,19.3671 139.970611,25.5981 Z" id="Stroke-21" stroke="#21314D" stroke-linecap="round" stroke-linejoin="round" stroke-width="3"/>
                        <path d="M133.286111,25.5981 C133.286111,28.1371 131.228111,30.1961 128.688111,30.1961 C126.149111,30.1961 124.091111,28.1371 124.091111,25.5981 C124.091111,23.0591 126.149111,21.0001 128.688111,21.0001 C131.228111,21.0001 133.286111,23.0591 133.286111,25.5981 Z" fill="#FFFFFF" id="Stroke-23" stroke="#21314D" stroke-linecap="round" stroke-linejoin="round" stroke-width="3"/>
                        <path d="M65.9706107,112.5981 C65.9706107,114.3641 65.5646107,116.0351 64.8416107,117.5231 C63.0126107,121.2861 54.6886107,132.9301 54.6886107,132.9301 C54.6886107,132.9301 46.5626107,121.4171 44.6796107,117.8101 C43.8666107,116.2511 43.4066107,114.4781 43.4066107,112.5981 C43.4066107,106.3671 48.4576107,101.3161 54.6886107,101.3161 C60.9196107,101.3161 65.9706107,106.3671 65.9706107,112.5981 Z" fill="#21314D" id="Stroke-21" opacity="0.201926822"/>
                        <path d="M65.9706107,112.5981 C65.9706107,114.3641 65.5646107,116.0351 64.8416107,117.5231 C63.0126107,121.2861 54.6886107,132.9301 54.6886107,132.9301 C54.6886107,132.9301 46.5626107,121.4171 44.6796107,117.8101 C43.8666107,116.2511 43.4066107,114.4781 43.4066107,112.5981 C43.4066107,106.3671 48.4576107,101.3161 54.6886107,101.3161 C60.9196107,101.3161 65.9706107,106.3671 65.9706107,112.5981 Z" id="Stroke-21" stroke="#21314D" stroke-linecap="round" stroke-linejoin="round" stroke-width="3"/>
                        <path d="M59.2861107,112.5981 C59.2861107,115.1371 57.2281107,117.1961 54.6881107,117.1961 C52.1491107,117.1961 50.0911107,115.1371 50.0911107,112.5981 C50.0911107,110.0591 52.1491107,108.0001 54.6881107,108.0001 C57.2281107,108.0001 59.2861107,110.0591 59.2861107,112.5981 Z" fill="#FFFFFF" id="Stroke-23" stroke="#21314D" stroke-linecap="round" stroke-linejoin="round" stroke-width="3"/>
                        <path d="M49.5933021,45.218 L31.643843,45.218 C28.964431,45.218 26.7919147,43.0454837 26.7919147,40.3660717 C26.7919147,37.8486879 28.7094966,35.7802264 31.162961,35.5386706 C31.1406635,35.3654936 31.1250553,35.1900869 31.1250553,35.0109639 C31.1250553,32.764866 32.9460149,30.9446496 35.1913696,30.9446496 C35.7971174,30.9446496 36.369419,31.0806641 36.8852337,31.3177605 C37.8098352,28.9215263 40.1287716,27.218 42.8505487,27.218 C46.3839536,27.218 49.2484346,30.082481 49.2484346,33.6166291 L49.2484346,33.6166291 C49.2521509,33.6166291 49.2551239,33.6166291 49.2580968,33.6166291 C52.4614993,33.6166291 55.0584107,36.2135405 55.0584107,39.4169429 C55.0584107,42.6210886 52.4614993,45.218 49.2580968,45.218 L47.1219997,45.218" fill="#21314D" fill-opacity="0.198192676" id="Stroke-29"/>
                        <path d="M49.5933021,45.218 L31.643843,45.218 C28.964431,45.218 26.7919147,43.0454837 26.7919147,40.3660717 C26.7919147,37.8486879 28.7094966,35.7802264 31.162961,35.5386706 C31.1406635,35.3654936 31.1250553,35.1900869 31.1250553,35.0109639 C31.1250553,32.764866 32.9460149,30.9446496 35.1913696,30.9446496 C35.7971174,30.9446496 36.369419,31.0806641 36.8852337,31.3177605 C37.8098352,28.9215263 40.1287716,27.218 42.8505487,27.218 C46.3839536,27.218 49.2484346,30.082481 49.2484346,33.6166291 L49.2484346,33.6166291 C49.2521509,33.6166291 49.2551239,33.6166291 49.2580968,33.6166291 C52.4614993,33.6166291 55.0584107,36.2135405 55.0584107,39.4169429 C55.0584107,42.6210886 52.4614993,45.218 49.2580968,45.218 L47.1219997,45.218" id="Stroke-29" stroke="#21314D" stroke-linecap="square" stroke-width="3"/>
                        <line id="Stroke-32" stroke="#84BC34" stroke-linecap="round" stroke-linejoin="round" stroke-width="3" x1="13.0274107" x2="18.0274107" y1="113" y2="113"/>
                        <line id="Stroke-34" stroke="#84BC34" stroke-linecap="round" stroke-linejoin="round" stroke-width="3" x1="18.0274107" x2="23.0274107" y1="132" y2="132"/>
                        <line id="Stroke-40" stroke="#84BC34" stroke-linecap="round" stroke-linejoin="round" stroke-width="3" x1="8.02741066" x2="3.02741066" y1="103" y2="103"/>
                        <line id="Stroke-30" stroke="#84BC34" stroke-linecap="round" stroke-linejoin="round" stroke-width="3" transform="translate(168.527411, 67.000000) scale(-1, 1) translate(-168.527411, -67.000000) " x1="166.027411" x2="171.027411" y1="67" y2="67"/>
                        <line id="Stroke-36" stroke="#84BC34" stroke-linecap="round" stroke-linejoin="round" stroke-width="3" transform="translate(149.527411, 42.000000) scale(-1, 1) translate(-149.527411, -42.000000) " x1="147.027411" x2="152.027411" y1="42" y2="42"/>
                        <line id="Stroke-38" stroke="#84BC34" stroke-linecap="round" stroke-linejoin="round" stroke-width="3" transform="translate(159.527411, 57.000000) scale(-1, 1) translate(-159.527411, -57.000000) " x1="157.027411" x2="162.027411" y1="57" y2="57"/>
                    </g>
                </g>
            </g>
        </g>
    </g>
</svg>
