<?xml version="1.0" encoding="UTF-8" standalone="no"?>
<svg xmlns="http://www.w3.org/2000/svg" xmlns:xlink="http://www.w3.org/1999/xlink" height="180" version="1.1" viewBox="0 0 181 180" width="181">
    <title>Icon-Bedarf</title>
    <g fill="none" fill-rule="evenodd" id="-Neuaufbau-&quot;Vier-Säulen&quot;" stroke="none" stroke-width="1">
        <g id="freenet-group-index-1" transform="translate(-800.000000, -957.000000)">
            <g id="4Säulen" transform="translate(39.534591, 898.000000)">
                <g id="Group-6" transform="translate(682.958666, 59.000000)">
                    <g id="Icon-Bedarf" transform="translate(78.000000, 0.000000)">
                        <circle cx="90" cy="90" fill="#FFFFFF" id="Oval" r="90"/>
                        <path d="M131.506744,139.795038 C120.093088,151.626788 104.025587,159 86.2452758,159 C51.5943933,159 23.5067435,131.017622 23.5067435,96.5 C23.5067435,61.9808603 51.5943933,34 86.2452758,34 C86.8334829,34 87.4399762,34 88.0281833,34.0166986 L88.0281833,96.5 L131.506744,139.795038 Z" id="Stroke-1" stroke="#848FA1" stroke-linecap="round" stroke-linejoin="round" stroke-width="3"/>
                        <path d="M143.506744,26.8740399 L105.506744,65 L105.506744,10 C120.423504,10.422427 133.842924,16.8187404 143.506744,26.8740399 Z" fill="#84BC34" id="Stroke-3" opacity="0.202055432"/>
                        <path d="M143.506744,26.8740399 L105.506744,65 L105.506744,10 C120.423504,10.422427 133.842924,16.8187404 143.506744,26.8740399 Z" id="Stroke-3" stroke="#84BC34" stroke-linecap="round" stroke-linejoin="round" stroke-width="3"/>
                        <line id="Stroke-30" stroke="#84BC34" stroke-linecap="round" stroke-linejoin="round" stroke-width="3" x1="149.506744" x2="154.506744" y1="53" y2="53"/>
                        <line id="Stroke-38" stroke="#84BC34" stroke-linecap="round" stroke-linejoin="round" stroke-width="3" x1="140.506744" x2="145.506744" y1="43" y2="43"/>
                        <line id="Stroke-40" stroke="#84BC34" stroke-linecap="round" stroke-linejoin="round" stroke-width="3" x1="154.506744" x2="149.506744" y1="33" y2="33"/>
                        <path d="M159.506744,97.0076315 C159.506744,112.514939 153.396101,126.611936 143.449926,137 L103.506744,97.0076315 L143.449926,57 C153.379339,67.3865379 159.506744,81.4835349 159.506744,97.0076315 Z" fill="#21314D" id="Stroke-5" opacity="0.200175694"/>
                        <path d="M159.506744,97.0076315 C159.506744,112.514939 153.396101,126.611936 143.449926,137 L103.506744,97.0076315 L143.449926,57 C153.379339,67.3865379 159.506744,81.4835349 159.506744,97.0076315 Z" id="Stroke-5" stroke="#21314D" stroke-linecap="round" stroke-linejoin="round" stroke-width="3"/>
                        <line id="Stroke-7" stroke="#848FA1" stroke-linecap="round" stroke-linejoin="round" stroke-width="3" x1="77.5067435" x2="24.5067435" y1="52" y2="105"/>
                        <line id="Stroke-9" stroke="#848FA1" stroke-linecap="round" stroke-linejoin="round" stroke-width="3" x1="77.0067435" x2="25.5067435" y1="35.5" y2="85"/>
                        <line id="Stroke-11" stroke="#848FA1" stroke-linecap="round" stroke-linejoin="round" stroke-width="3" x1="78.5067435" x2="29.5067435" y1="71" y2="120"/>
                        <line id="Stroke-13" stroke="#848FA1" stroke-linecap="round" stroke-linejoin="round" stroke-width="3" x1="78.5067435" x2="36.5067435" y1="91" y2="133"/>
                        <line id="Stroke-15" stroke="#848FA1" stroke-linecap="round" stroke-linejoin="round" stroke-width="3" x1="81.5067435" x2="47.5067435" y1="109" y2="143"/>
                        <line id="Stroke-17" stroke="#848FA1" stroke-linecap="round" stroke-linejoin="round" stroke-width="3" x1="90.5067435" x2="58.5067435" y1="120" y2="152"/>
                        <line id="Stroke-19" stroke="#848FA1" stroke-linecap="round" stroke-linejoin="round" stroke-width="3" x1="103.506744" x2="74.5067435" y1="128" y2="157"/>
                        <line id="Stroke-21" stroke="#848FA1" stroke-linecap="round" stroke-linejoin="round" stroke-width="3" x1="113.506744" x2="92.5067435" y1="138" y2="159"/>
                    </g>
                </g>
            </g>
        </g>
    </g>
</svg>
